<?xml version="1.0" standalone="no"?><!DOCTYPE svg PUBLIC "-//W3C//DTD SVG 1.1//EN" "http://www.w3.org/Graphics/SVG/1.1/DTD/svg11.dtd"><svg t="1714561984167" class="icon" viewBox="0 0 1024 1024" version="1.1" xmlns="http://www.w3.org/2000/svg" p-id="13912" xmlns:xlink="http://www.w3.org/1999/xlink" width="200" height="200"><path d="M275.253761 894.500526a449.536 449.536 0 1 0 472.623745-764.824985 449.536 449.536 0 1 0-472.623745 764.824985Z" fill="#FFFFFF" p-id="13913"></path><path d="M511.488 512m-439.296 0a439.296 439.296 0 1 0 878.592 0 439.296 439.296 0 1 0-878.592 0Z" fill="#F2F2F2" p-id="13914"></path><path d="M751.616 589.312c-9.216 29.696-24.576 57.344-44.544 80.384-25.088-16.896-53.248-29.696-83.456-37.888 5.12-28.672 8.192-59.904 9.216-93.696h162.304c0-5.12 1.024-10.752 1.024-15.872 0-6.144 0-10.752-1.024-15.872h-161.792c-1.024-33.792-4.096-65.024-9.216-93.696 30.208-8.192 58.88-22.016 83.456-37.888 20.48 23.04 35.328 50.688 44.544 80.384h33.792c-29.696-110.592-131.072-192.512-250.88-192.512s-221.184 80.896-250.88 192.512H317.44c9.216-29.696 24.576-57.344 44.544-80.384 25.088 16.896 53.248 29.696 84.48 37.888-5.12 28.672-8.192 59.904-9.216 93.696H274.944c0 5.12-1.024 10.752-1.024 15.872 0 6.144 0 10.752 1.024 15.872h162.304c1.024 33.792 4.096 65.024 9.216 93.696-30.208 8.192-58.88 20.992-84.48 37.888-20.48-23.04-35.328-50.688-44.544-80.384h-33.792c29.696 110.592 131.072 192.512 250.88 192.512s221.184-81.92 250.88-192.512h-33.792z m-67.584-239.104c-20.48 12.8-43.008 23.04-67.584 29.696-7.68-32.256-18.432-58.88-30.208-79.36 35.84 8.192 69.632 26.112 97.792 49.664zM470.016 505.856c1.024-32.256 3.584-60.928 8.192-86.016 18.432 3.584 37.376 5.12 56.832 5.12s37.888-1.536 56.832-5.12c4.096 25.088 7.68 54.272 8.192 86.016H470.016z m129.536 32.768c-1.024 32.256-3.584 60.928-8.192 86.016-18.432-3.584-37.376-5.12-56.832-5.12s-37.888 1.536-56.832 5.12c-4.096-25.088-7.68-54.272-8.192-86.016h130.048z m-65.024-244.224c11.776 0 34.816 32.256 49.664 92.672-15.872 2.56-32.768 4.096-49.664 4.096-16.896 0-33.792-1.536-49.664-4.096 14.848-60.416 37.376-92.672 49.664-92.672zM385.536 350.208c27.648-23.552 60.928-41.472 97.792-49.664-12.8 20.48-23.04 47.104-30.208 79.36-24.576-6.656-46.592-16.896-67.584-29.696z m0 343.04c20.48-12.8 43.008-23.04 66.56-29.696 7.68 32.256 18.432 58.88 30.208 79.36-34.816-8.192-68.608-25.088-96.768-49.664z m148.992 56.832c-11.776 0-34.816-32.256-49.664-92.672 15.872-2.56 32.768-4.096 49.664-4.096 16.896 0 33.792 1.536 49.664 4.096-14.336 60.416-37.376 92.672-49.664 92.672z m51.2-6.144c12.8-20.48 23.04-47.104 30.208-79.36 24.576 6.656 46.592 16.896 67.584 29.696-27.648 23.552-61.44 40.448-97.792 49.664z" opacity=".1" p-id="13915"></path><path d="M260.608 521.728c0 18.432 15.36 32.768 32.768 32.768 18.432 0 32.768-15.36 32.768-32.768 0-18.432-15.36-32.768-32.768-32.768-17.408 0-32.768 15.36-32.768 32.768z" opacity=".1" p-id="13916"></path><path d="M294.4 568.32c-25.088 0-45.568-20.48-45.568-45.568s20.48-45.568 45.568-45.568 45.568 20.48 45.568 45.568-19.968 45.568-45.568 45.568z m0-66.56c-10.752 0-20.48 9.216-20.48 20.48 0 10.752 9.216 20.48 20.48 20.48s20.48-9.216 20.48-20.48-9.728-20.48-20.48-20.48zM748.032 521.728c0 18.432 15.36 32.768 32.768 32.768 18.432 0 32.768-15.36 32.768-32.768 0-18.432-15.36-32.768-32.768-32.768s-32.768 15.36-32.768 32.768z" opacity=".1" p-id="13917"></path><path d="M780.8 568.32c-25.088 0-45.568-20.48-45.568-45.568s20.48-45.568 45.568-45.568 45.568 20.48 45.568 45.568-19.968 45.568-45.568 45.568z m0-66.56c-10.752 0-20.48 9.216-20.48 20.48 0 10.752 9.216 20.48 20.48 20.48 10.752 0 20.48-9.216 20.48-20.48s-8.704-20.48-20.48-20.48z" opacity=".1" p-id="13918"></path><path d="M522.24 183.808h15.36c186.88 0 339.456 152.064 339.456 339.456 0 104.96-48.128 199.168-123.392 261.12l9.216 25.088c84.48-66.56 139.264-170.496 139.264-286.208 0-201.216-163.84-365.056-365.056-365.056-8.192 0-16.896 0-25.088 1.024l10.24 24.576z m9.728 677.376c-184.32-3.584-333.824-153.6-333.824-338.944 0-97.792 41.472-185.856 107.52-247.296l-10.24-25.088c-75.776 66.56-123.392 164.864-123.392 272.896 0 201.216 163.84 365.056 365.056 365.056h4.096l-9.216-26.624z" opacity=".1" p-id="13919"></path><path d="M504.832 875.008c0 18.432 15.36 32.768 32.768 32.768 18.432 0 32.768-15.36 32.768-32.768 0-18.432-15.36-32.768-32.768-32.768-18.432-1.024-32.768 13.824-32.768 32.768z" opacity=".1" p-id="13920"></path><path d="M537.6 920.576c-25.088 0-45.568-20.48-45.568-45.568s20.48-45.568 45.568-45.568 45.568 20.48 45.568 45.568-19.968 45.568-45.568 45.568z m0-66.048c-10.752 0-20.48 9.216-20.48 20.48 0 10.752 9.216 20.48 20.48 20.48s20.48-9.216 20.48-20.48-9.216-20.48-20.48-20.48zM504.832 169.472c0 18.432 15.36 32.768 32.768 32.768 18.432 0 32.768-15.36 32.768-32.768 0-18.432-15.36-32.768-32.768-32.768-18.432 0-32.768 14.336-32.768 32.768z" opacity=".1" p-id="13921"></path><path d="M537.6 215.04c-25.088 0-45.568-20.48-45.568-45.568s20.48-45.568 45.568-45.568 45.568 20.48 45.568 45.568S563.2 215.04 537.6 215.04z m0-65.536c-10.752 0-20.48 9.216-20.48 20.48 0 10.752 9.216 20.48 20.48 20.48s20.48-9.216 20.48-20.48-9.216-20.48-20.48-20.48z" opacity=".1" p-id="13922"></path><path d="M718.848 569.856c-9.216 29.696-24.576 57.344-44.544 80.384-25.088-16.896-53.248-29.696-83.456-37.888 5.12-28.672 8.192-59.904 9.216-93.696h162.304c0-5.12 1.024-10.752 1.024-15.872 0-6.144 0-10.752-1.024-15.872h-161.792c-1.024-33.792-4.096-65.024-9.216-93.696 30.208-8.192 58.88-22.016 83.456-37.888 20.48 23.04 35.328 50.688 44.544 80.384h33.792c-29.696-110.592-131.072-192.512-250.88-192.512S280.576 323.072 250.88 434.688h33.792c9.216-29.696 24.576-57.344 44.544-80.384 25.088 16.896 53.248 29.696 84.48 37.888-5.12 28.672-8.192 59.904-9.216 93.696H242.688c0 5.12-1.024 10.752-1.024 15.872 0 6.144 0 10.752 1.024 15.872H404.48c1.024 33.792 4.096 65.024 9.216 93.696-30.208 8.192-58.88 20.992-84.48 37.888-20.48-23.04-35.328-50.688-44.544-80.384H250.88c29.696 110.592 131.072 192.512 250.88 192.512s221.184-81.92 250.88-192.512h-33.792v1.024z m-67.584-239.104c-20.48 12.8-43.008 23.04-67.584 29.696-7.68-32.256-18.432-58.88-30.208-79.36 36.352 8.192 70.144 26.112 97.792 49.664zM437.76 486.4c1.024-32.256 3.584-60.928 8.192-86.016 18.432 3.584 37.376 5.12 56.832 5.12s37.888-1.536 56.832-5.12c4.096 25.088 7.68 54.272 8.192 86.016H437.76z m129.024 32.768c-1.024 32.256-3.584 60.928-8.192 86.016-18.432-3.584-37.376-5.12-56.832-5.12s-37.888 1.536-56.832 5.12c-4.096-25.088-7.68-54.272-8.192-86.016h130.048zM501.76 274.944c11.776 0 34.816 32.256 49.664 92.672-15.872 2.56-32.768 4.096-49.664 4.096-16.896 0-33.792-1.536-49.664-4.096C466.944 307.2 489.984 274.944 501.76 274.944zM353.28 330.752c27.648-23.552 60.928-41.472 97.792-49.664-12.8 20.48-23.04 47.104-30.208 79.36-24.576-6.656-46.592-16.896-67.584-29.696z m0 343.04c20.48-12.8 43.008-23.04 66.56-29.696 7.68 32.256 18.432 58.88 30.208 79.36-35.328-8.192-69.12-25.088-96.768-49.664z m148.48 56.832c-11.776 0-34.816-32.256-49.664-92.672 15.872-2.56 32.768-4.096 49.664-4.096 16.896 0 33.792 1.536 49.664 4.096-14.336 60.416-36.864 92.672-49.664 92.672z m51.712-6.144c12.8-20.48 23.04-47.104 30.208-79.36 24.576 6.656 46.592 16.896 67.584 29.696-27.648 23.552-61.44 40.448-97.792 49.664z" fill="#1195FE" p-id="13923"></path><path d="M228.352 502.272c0 18.432 15.36 32.768 32.768 32.768 18.432 0 32.768-15.36 32.768-32.768 0-18.432-15.36-32.768-32.768-32.768-17.92 0-32.768 14.848-32.768 32.768z" fill="#FFFFFF" p-id="13924"></path><path d="M262.144 548.864c-25.088 0-45.568-20.48-45.568-45.568s20.48-45.568 45.568-45.568 45.568 20.48 45.568 45.568-20.48 45.568-45.568 45.568z m0-66.56c-10.752 0-20.48 9.216-20.48 20.48 0 10.752 9.216 20.48 20.48 20.48 10.752 0 20.48-9.216 20.48-20.48-0.512-11.264-9.728-20.48-20.48-20.48z" fill="#1195FE" p-id="13925"></path><path d="M715.264 502.272c0 18.432 15.36 32.768 32.768 32.768 18.432 0 32.768-15.36 32.768-32.768 0-18.432-15.36-32.768-32.768-32.768-17.408 0-32.768 14.848-32.768 32.768z" fill="#FFFFFF" p-id="13926"></path><path d="M748.544 548.864c-25.088 0-45.568-20.48-45.568-45.568s20.48-45.568 45.568-45.568 45.568 20.48 45.568 45.568-20.48 45.568-45.568 45.568z m0-66.56c-10.752 0-20.48 9.216-20.48 20.48 0 10.752 9.216 20.48 20.48 20.48 10.752 0 20.48-9.216 20.48-20.48-0.512-11.264-8.704-20.48-20.48-20.48z" fill="#1195FE" p-id="13927"></path><path d="M489.984 164.352h15.36c186.88 0 339.456 152.064 339.456 339.456 0 104.96-48.128 199.168-123.392 261.12l9.216 25.088c84.48-66.56 139.264-170.496 139.264-286.208 0-201.216-163.84-365.056-365.056-365.056-8.192 0-16.896 0-25.088 1.024l10.24 24.576z m9.216 677.376c-184.32-3.584-333.824-153.6-333.824-338.944 0-97.792 41.472-185.856 107.52-247.296l-10.24-25.088C186.88 296.96 139.264 395.264 139.264 503.296c0 201.216 163.84 365.056 365.056 365.056h4.096l-9.216-26.624z" fill="#AED7FF" p-id="13928"></path><path d="M472.064 855.552c0 18.432 15.36 32.768 32.768 32.768 18.432 0 32.768-15.36 32.768-32.768 0-18.432-15.36-32.768-32.768-32.768-18.432-1.024-32.768 13.824-32.768 32.768z" fill="#FFFFFF" p-id="13929"></path><path d="M505.344 901.12c-25.088 0-45.568-20.48-45.568-45.568s20.48-45.568 45.568-45.568 45.568 20.48 45.568 45.568-20.48 45.568-45.568 45.568z m0-66.048c-10.752 0-20.48 9.216-20.48 20.48 0 10.752 9.216 20.48 20.48 20.48s20.48-9.216 20.48-20.48c-0.512-11.264-9.728-20.48-20.48-20.48z" fill="#1195FE" p-id="13930"></path><path d="M472.064 150.016c0 18.432 15.36 32.768 32.768 32.768 18.432 0 32.768-15.36 32.768-32.768 0-18.432-15.36-32.768-32.768-32.768-18.432 0-32.768 14.336-32.768 32.768z" fill="#FFFFFF" p-id="13931"></path><path d="M505.344 195.584c-25.088 0-45.568-20.48-45.568-45.568s20.48-45.568 45.568-45.568 45.568 20.48 45.568 45.568-20.48 45.568-45.568 45.568z m0-65.536c-10.752 0-20.48 9.216-20.48 20.48s9.216 20.48 20.48 20.48 20.48-9.216 20.48-20.48-9.728-20.48-20.48-20.48z" fill="#1195FE" p-id="13932"></path></svg>