<svg class="svg-canvas" viewBox="0 0 800 600" width="1600" height="1200" preserveAspectRatio="none" version="1.1" xmlns="http://www.w3.org/2000/svg" xmlns:xlink="http://www.w3.org/1999/xlink" style="background: rgb(255,255,255);background:#fdf0e9;">
        <!--滤镜-->
        <defs></defs>

        <!-- 背景 -->
        

        <!--元素-->
        
                <g id="shape_CmVlipROCh" ref="shape_CmVlipROCh" key="shape_CmVlipROCh" mask="">
                  <g transform="translate(184.00000000001,120) rotate(0,215.99999999999,180) scale(1,1)" style="opacity: 1;" filter="">
                    <!--普通元素-->
                    <svg version="1.1" id="图层_1" xmlns="http://www.w3.org/2000/svg" xmlns:xlink="http://www.w3.org/1999/xlink" x="0px" y="0px" width="431.99999999999" height="360" viewBox="0 0 30 25" style="enable-background:new 0 0 30 25;" xml:space="preserve" class="style-removed" preserveAspectRatio="none" data-parent="shape_CmVlipROCh">

<g>
	<path d="M12.7,17.4c0,0,0.1-2-1-2.6s-2.3-0.9-4-0.2c-0.8,0.2-3.2,1.4-3.2,4.4c0.1,1.4,3.2,4.6,6.9,1.6
		C12.5,19.6,12.7,17.4,12.7,17.4z" fill="#f9dc34" stroke-width="0"></path>
	<path d="M6.2,11c0,0-1.9,0.7-2.1,0.6c-0.1-0.1-0.1-0.1-0.3,0c-0.1,0.1-0.2,0.3-0.2,0.4c0,0.1,0.1,0.3,0.5,0c0.2,0,0.3,0,0.4-0.1
		c0.1-0.1,1.5-0.5,1.6-0.6C6.3,11.1,6.2,11,6.2,11z" fill="#000000" stroke-width="0"></path>
	<path d="M14.3,6.7c-0.3,0-0.8-0.2-0.9,0c-0.1,0.2-0.1,0.6-0.4,0.7c-0.3,0-3.1,0.4-3.6,3.8c-0.1,1.3,2.6,5.4,5.2,4.3
		c0.9-0.6,0.9-0.8,1.4-0.9c0.5,0,1.8-0.5,2-2.1C18.1,10.9,18.4,7.2,14.3,6.7z" fill="#fca92f" stroke-width="0"></path>
	<path d="M16.8,16.2c-0.3-0.1-0.6-0.2-0.9-0.2c-0.1,0-0.2,0-0.3-0.1c-0.2-0.1-0.3-0.2-0.3,0c-0.1,0.3-0.4,0.8-0.6,0.8
		c-0.2,0-2.3-0.4-3.3,3c-0.2,0.5-0.2,1.1,0,1.6c0.4,1.4,1.7,3.9,5.3,2.9c1.2,0,2-0.4,2.2-1.3C19.1,22,22.2,18.4,16.8,16.2z" fill="#e86826" stroke-width="0"></path>
	<path d="M13.8,16.4c-0.1-0.1-0.3-0.6-0.6-0.6c-0.3-0.1-0.5-0.2-0.6-0.2c-0.1,0,0.3,0.9,0.9,1C13.7,16.6,13.8,16.4,13.8,16.4z" fill="#000000" stroke-width="0"></path>
	<path d="M15.6,14.1c0,0,0.1-0.4,0-0.5s-0.2-0.3-0.3-0.3c-0.1,0.1-0.1,0.5-0.2,0.5c-0.2,0-0.2-0.4-0.3-0.3
		c-0.1,0.1-0.3,0.1,0,0.6c-0.1,0.2,0,0.1-0.3,0.1c-0.1,0-0.3,0.1-0.3,0.2c0.1,0.1,0.5-0.1,0.4,0.1c0,0.2-0.2,0.1-0.2,0.3
		c0.1,0.2,0.2,0.1,0.3,0.1c0.1,0,0.1,0.1,0.2,0.1c0.1,0,0.2-0.2,0.2-0.4c0-0.2,0.1-0.2,0.1-0.2c0,0,0.3,0,0.3,0.2
		c0.1,0,0.1-0.1,0.4-0.3c0.3-0.2,0.4-0.2,0.3-0.4c-0.1-0.1-0.3,0-0.5,0.2C15.8,14.1,15.7,14.2,15.6,14.1z" fill="#543200" stroke-width="0"></path>
	<path d="M17,22.4c0,0,0.3-0.5,0.1-0.6c-0.2-0.1-0.2-0.1-0.3,0.2c-0.1,0.2,0.1,0.3-0.1,0.2c-0.2,0-0.3-0.3-0.5-0.3
		c-0.2,0-0.5,0.1-0.6,0.3s-0.2,0.4-0.1,0.4c0.1,0,0.3-0.1,0.4-0.2c0.1,0,0.3,0,0.3,0.1s-0.2,0.2-0.3,0.2s-0.2,0.1-0.3,0.2
		c0,0.1,0.2,0.1,0.3,0.2c0.1,0.1,0,0.5,0.3,0.6c0.3,0,0-0.3,0.3-0.3c0.3,0.1,0.4,0.5,0.6,0.5c0.2,0,0.5-0.3,0.2-0.5
		c-0.3-0.2-0.4-0.2-0.3-0.3c0.1-0.1,0.6-0.1,0.6-0.4C17.5,22.3,17.2,22.8,17,22.4z" fill="#543200" stroke-width="0"></path>
	<path d="M8.8,21.1c-0.1-0.1-0.1-0.1,0-0.2c0.1-0.2-0.3-0.1-0.5,0.1c-0.1,0.1-0.2-0.1-0.2-0.1s-0.3-0.2-0.4-0.1
		c-0.1,0.1-0.3,0.4-0.2,0.4c0.1,0.1,0.6-0.1,0.6,0.1c0.1,0.1-0.2,0.1-0.3,0.2s0.3,0.6,0.7,0.3c0.1,0-0.1-0.2,0-0.3
		c0-0.1,0.3,0.2,0.4,0.1c0.1,0,0.5-0.4,0.3-0.4C9.2,21,8.9,21.2,8.8,21.1z" fill="#543200" stroke-width="0"></path>
	<path d="M10.2,9c0-0.1-0.3-0.1-0.9,0C8.9,9.2,8.6,8.5,8.1,8.4c-0.5-0.2-0.8-0.3-1-0.5C7,7.6,4.9,5.3,4.8,2.7c-0.1-0.3-1,1-0.7,1.5
		C4.3,4.8,4.4,4.7,4.3,5C4.3,5.3,4.2,5.4,4.4,5.6c0.2,0.3,0.8,0.1,1,0.8s1.4,1.7,1.5,1.9S6.6,8.5,6.7,9.1C6.7,9.5,6.3,9.5,6.4,9.9
		s0.1,0.5,0.1,0.9c-0.1,0.4,0,0.9-0.1,1.3c0,0.4-0.5,1.3-0.3,1.8c0.2,0.5,0.7,0.6,0.8,0s0-0.9,0.1-1.3c0.1-0.5,0.5,0,0.7,0.1
		c0.2,0.1,1.1,0.7,1.2,0.9s0.3,0.5,0.5,0.4c0.1-0.1,0.1-0.4,0.1-0.5c0-0.1,0.1-0.1,0-0.1c0-0.1,0.1-0.2-0.6-0.3
		c-0.3-0.2-0.7-0.6-1-0.7S7,12.2,7,12.1c0-0.1,0.1-0.2,0.2-0.4c0.1-0.2,0.6-0.7,0.4-0.9c-0.2-0.2-0.3-0.4-0.3-0.5S7.1,9.7,7.1,9.5
		c0-0.2,0.3-0.5,1.2,0S9,9.8,9.3,10c0.2,0.1,0.4,0.3,0.5,0.4c0.1,0.1,0.2,0.1,0.3,0C10.3,10.2,10.5,9.7,10.2,9z" fill="#000000" stroke-width="0"></path>
</g>
</svg>
                  </g>
                </g>
                <g id="shape_VJZPxW2OoX" ref="shape_VJZPxW2OoX" key="shape_VJZPxW2OoX" mask="">
                  <g transform="translate(442.65255501633,131.2334652346) rotate(0,59.036743923119,49.1972866026) scale(1,1)" style="opacity: 1;" filter="">
                    <!--普通元素-->
                    <svg version="1.1" id="图层_1" xmlns="http://www.w3.org/2000/svg" xmlns:xlink="http://www.w3.org/1999/xlink" x="0px" y="0px" width="118.07348784624" height="98.3945732052" viewBox="0 0 30 25" style="enable-background:new 0 0 30 25;" xml:space="preserve" class="style-removed" preserveAspectRatio="none" data-parent="shape_VJZPxW2OoX">

<g>
	<path d="M16.6,3.7c-0.8-0.1-1.9-0.4-2.2,0c-0.2,0.4-0.3,1.5-0.9,1.6c-0.6,0.1-7,0.9-8.2,8.6c-0.1,3,6,12.2,11.8,9.7
		c2-1.4,2-1.8,3.1-1.9c1.1-0.1,4.1-1.2,4.6-4.8S26,5,16.6,3.7z" fill="#e86826" stroke-width="0"></path>
	<path d="M19.7,20.7c-0.1-0.1,0.2-0.9,0-1.2s-0.4-0.8-0.6-0.6C18.9,19,19,20.1,18.6,20s-0.4-0.9-0.7-0.7s-0.6,0.1,0,1.3
		c-0.2,0.3-0.1,0.3-0.8,0.3c-0.3,0-0.8,0.3-0.6,0.6s1.1-0.2,1,0.2c-0.1,0.4-0.5,0.2-0.4,0.6c0.1,0.3,0.6,0.2,0.8,0.2
		c0.2,0.1,0.1,0.3,0.4,0.2c0.3-0.1,0.5-0.4,0.5-0.9c0.1-0.4,0.2-0.4,0.3-0.4c0.1,0,0.6,0.1,0.8,0.4c0.2,0,0.3-0.3,0.9-0.8
		c0.6-0.4,0.9-0.6,0.7-0.8c-0.2-0.3-0.6,0.1-1.1,0.3C20,20.7,19.8,20.9,19.7,20.7z" fill="#543200" stroke-width="0"></path>
</g>
</svg>
                  </g>
                </g>
      </svg>