<?xml version="1.0" standalone="no"?><!DOCTYPE svg PUBLIC "-//W3C//DTD SVG 1.1//EN" "http://www.w3.org/Graphics/SVG/1.1/DTD/svg11.dtd"><svg t="1714562400015" class="icon" viewBox="0 0 1024 1024" version="1.1" xmlns="http://www.w3.org/2000/svg" p-id="4445" xmlns:xlink="http://www.w3.org/1999/xlink" width="200" height="200"><path d="M888 128H170.4c-39.6 0-71.9 32.2-72 71.7-0.3 2.7-0.4 5.5-0.4 8.2v607.6c0 2.8 0.1 5.5 0.4 8.3 0.2 39.5 32.4 71.7 72 71.7h4.6c1 0 2 0.1 3 0.1h61.3c1 0 2 0 3-0.1H888c39.7 0 72-32.3 72-72V200c0-39.7-32.3-72-72-72zM171.5 420.1c0-19.9 16.1-36 36-36s36 16.1 36 36-16.1 36-36 36-36-16.1-36-36z m36-91.3c-19.9 0-36-16.1-36-36s16.1-36 36-36 36 16.1 36 36-16.1 36-36 36zM888 823.6H318.9c0.3-2.6 0.4-5.3 0.4-7.9V208c0-2.7-0.1-5.4-0.4-8H888v623.6z" fill="#369FB6" p-id="4446"></path><path d="M377.8 767.8h120V255.6h-120v512.2z m59.6-479.6c19.9 0 36 16.1 36 36s-16.1 36-36 36-36-16.1-36-36 16.2-36 36-36zM549.1 767.8h120V255.6h-120v512.2z m60-479.6c19.9 0 36 16.1 36 36s-16.1 36-36 36-36-16.1-36-36 16.1-36 36-36zM718.2 767.8h120V255.6h-120v512.2z m60-479.6c19.9 0 36 16.1 36 36s-16.1 36-36 36-36-16.1-36-36 16.1-36 36-36z" fill="#369FB6" p-id="4447"></path></svg>