<?xml version="1.0" standalone="no"?><!DOCTYPE svg PUBLIC "-//W3C//DTD SVG 1.1//EN" "http://www.w3.org/Graphics/SVG/1.1/DTD/svg11.dtd"><svg t="1714561461902" class="icon" viewBox="0 0 1024 1024" version="1.1" xmlns="http://www.w3.org/2000/svg" p-id="5835" xmlns:xlink="http://www.w3.org/1999/xlink" width="200" height="200"><path d="M609.028984 694.932416a34.378648 34.378648 0 0 1-54.867632 3.57606999c-14.718899-7.152141-7.359449-32.823835-7.359449-47.52545799 3.57606999-149.918548-7.359449-318.132065-7.35944901-471.626683 0-25.637143 14.718899-58.737389 43.932112-58.737389 39.734116 0 25.65441799 36.58993799 25.65441801 58.737389V354.32466199a216.775517 216.775517 0 0 1 116.921956-43.93211198c234.033944 0 234.033944 402.299288-14.511591 402.29928798-4.78537001 0.293687-9.691669 0.48372-14.494314 0.48372002a221.992779 221.992779 0 0 1-87.916051-18.17404z m-164.63744601-113.34588601c-18.277693 131.64085399-25.637143 153.51189399-25.63714299 288.91885202 0 18.294969-14.51158999 32.996592-39.734116 32.996592a28.47035801 28.47035801 0 0 1-4.37075301 0.32823799 29.230489 29.230489 0 0 1-29.33414299-29.230489 29.938793 29.938793 0 0 1 0.190033-3.299659c-3.57606999-39.734116 11.142828-124.281405 11.142828-168.213517-113.466815 29.02318-230.388771-26.449101-230.388771-154.513884 0-139.190336 87.691467-244.969464 234.033944-244.969464a31.631812 31.631812 0 0 1 29.23048899 21.87103901 39.734116 39.734116 0 0 1 69.58653001 22.078348c0 73.162601-7.359449 153.49461799-14.71889801 234.01666899z m-109.75253899-207.308432z m0 0c-91.45757001 14.51158999-131.623579 91.267537-131.623579 175.36565801 0 62.19252999 43.932112 102.410365 109.752539 102.41036599a58.322772 58.322772 0 0 0 47.525458-39.73411699c25.65441799-52.50086 25.65441799-176.97229799 25.654418-238.00735501-14.718899 2.57408-36.58993799-4.76809399-51.308836 0z m391.311941 9.93352901a172.32513399 172.32513399 0 0 0-116.921956 51.101529v182.863313c62.037048 29.230489 135.216925 47.52545801 190.032729-10.93552 62.19252999-69.58652999 33.013868-223.098424-73.1626-223.098424zM510.211965 0h-0.98471501C229.015352 0 1.788035 227.244593 1.788035 507.421939v7.566758c0 280.88564999 227.572831 508.769444 508.458481 509.011303 282.71687401 0 512-229.28312601 512-512S792.928839 0 510.211965 0z" fill="#00A0E9" p-id="5836"></path></svg>